<svg id="Слой_1" data-name="Слой 1" xmlns="http://www.w3.org/2000/svg" viewBox="0 0 245.06 49.53"><defs><style>.cls-1{fill:#381d00;}</style></defs><path class="cls-1" d="M29,50.36v6.53a11.79,11.79,0,0,1-7.37,2.71q-6.21,0-9.59-6.35T8.6,35.12q0-11.77,3.4-18.41t9.72-6.63a12,12,0,0,1,6.67,2.5v6.28q-3.11-3-6.21-3c-2.49,0-4.3,1.46-5.41,4.38S15.09,28,15.09,34.84s.56,11.58,1.69,14.54,3,4.44,5.61,4.44Q25.08,53.82,29,50.36Z" transform="translate(-8.6 -10.08)"/><path class="cls-1" d="M38.05,59l9.1-48.54h6.46l9,48.54h-6L54.91,48.28H46L44.05,59Zm8.82-16.48h7L50.43,22.28h-.18Z" transform="translate(-8.6 -10.08)"/><path class="cls-1" d="M76.71,59V16.5H69.3V10.71h21V16.5H82.91V59Z" transform="translate(-8.6 -10.08)"/><path class="cls-1" d="M97.09,59l9.1-48.54h6.46l9,48.54h-6L114,48.28h-9L103.09,59Zm8.82-16.48h7l-3.39-20.21h-.18Z" transform="translate(-8.6 -10.08)"/><path class="cls-1" d="M133.66,59V10.71h5.19q6.21,0,9.47,3.65t3.26,9.72q0,6.89-5,10.34,3.87,2.74,6.59,14.64L155.39,59h-6.5L147,50.64q-2-8.74-3.48-11.13t-3.67-2.13V59Zm6.21-27.38h.28q5.22,0,5.23-7.3,0-7.75-5.51-7.79Z" transform="translate(-8.6 -10.08)"/><path class="cls-1" d="M185.69,50.36v6.53a11.83,11.83,0,0,1-7.37,2.71q-6.21,0-9.6-6.35t-3.39-18.13q0-11.77,3.41-18.41t9.72-6.63a12.06,12.06,0,0,1,6.67,2.5v6.28q-3.1-3-6.21-3c-2.5,0-4.3,1.46-5.42,4.38s-1.67,7.79-1.67,14.6.56,11.58,1.69,14.54,3,4.44,5.61,4.44C180.92,53.82,183.1,52.67,185.69,50.36Z" transform="translate(-8.6 -10.08)"/><path class="cls-1" d="M198.56,59V10.71h6.17V32H214V10.71h6.17V59H214V37.73h-9.25V59Z" transform="translate(-8.6 -10.08)"/><path class="cls-1" d="M239.72,59v-22l-7.58-26.21h6.39l4.13,18.83h.15l4.37-18.83h6.48l-7.73,26.21V59Z" transform="translate(-8.6 -10.08)"/></svg>